<?xml version="1.0" standalone="no"?>
<!DOCTYPE svg PUBLIC "-//W3C//DTD SVG 1.1//EN" "http://www.w3.org/Graphics/SVG/1.1/DTD/svg11.dtd" >
<!--
2013-9-30: Created.
-->
<svg>
<metadata>
Created by iconfont
</metadata>
<defs>

<font id="iconfont" horiz-adv-x="1024" >
  <font-face
    font-family="iconfont"
    font-weight="500"
    font-stretch="normal"
    units-per-em="1024"
    ascent="896"
    descent="-128"
  />
    <missing-glyph />
    
    <glyph glyph-name="medical" unicode="&#58937;" d="M780.801528 896L271.912831 896c-48.902497 0-88.672759-39.767629-88.672759-88.645826l0-77.581324c0-48.882348 39.771274-88.647851 88.672759-88.647851l508.889701 0c48.902497 0 88.670734 39.766617 88.670734 88.647851L869.473266 807.354153C869.472262 856.232472 829.705038 896 780.801528 896zM810.651196 729.7728c0-16.44657-13.383253-29.830228-29.849668-29.830228L271.912831 699.942572c-16.469453 0-29.852706 13.383658-29.852706 29.830228L242.060125 807.354153c0 16.445557 13.383253 29.830228 29.852706 29.830228l508.889701 0c16.466415 0 29.849668-13.384671 29.849668-29.830228L810.652201 729.772829zM780.801528 621.516341L271.912831 621.516341c-48.902497 0-88.672759-39.762567-88.672759-88.644813l0-548.129516c0-48.882348 39.771274-88.647851 88.672759-88.647851l508.889701 0c48.902497 0 88.670734 39.766617 88.670734 88.647851L869.473266 532.8715030000001C869.472262 581.753774 829.705038 621.516341 780.801528 621.516341zM810.651196-15.258020999999985c0-16.447582-13.383253-29.830228-29.849668-29.830228L271.912831-45.08824800000002c-16.469453 0-29.852706 13.383658-29.852706 29.830228L242.060125 532.8715030000001c0 16.444545 13.383253 29.830228 29.852706 29.830228l508.889701 0c16.466415 0 29.849668-13.385683 29.849668-29.830228L810.652201-15.258014000000003zM631.75954 437.809484c-7.752052 1.35892-15.508154 2.049974-23.070053 2.049974-34.810978 0-63.494006-14.771942-84.287277-33.889775-20.794284 19.117834-49.494525 33.889775-84.262977 33.889775-7.564835 0-15.321038-0.691054-23.074103-2.049974-45.262746-7.927828-79.671039-38.301482-92.05958-81.265475-14.054157-48.736644 2.220079-103.134461 41.45299-138.581512 44.384475-40.112599 93.61078-88.990897 120.052466-115.260452 7.905856-7.869101 13.899341-13.807707 17.232498-17.021283l20.428962-19.665209 20.390587 19.665209c3.217829 3.100274 8.788278 8.634069 16.162858 15.929469 26.266619 26.076263 75.190379 74.612527 121.391135 116.352266 39.290625 35.524914 55.601212 89.997658 41.530955 138.770754C711.278699 399.59508 676.930145 429.90292 631.75954 437.809484zM642.674745 261.59537c-44.460314-40.186514-91.007153-86.117228-118.51939-113.400733-27.514262 27.340106-74.904035 74.227056-118.254309 113.400733-22.324322 20.171171-32.128475 51.781229-24.372372 78.654861 3.579 12.434611 14.282787 34.127518 45.683757 39.621926 4.423958 0.776106 8.770053 1.168665 12.925892 1.168665 35.765189 0 55.409944-30.07921 58.989045-36.111778l25.333671-42.686761 25.272919 42.72625c3.561888 6.02052 23.148929 36.07229 58.955631 36.07229 4.153814 0 8.498896-0.393571 12.923867-1.168665 31.285541-5.477093 41.950852-27.063887 45.511728-39.440784C674.900321 313.52240400000005 665.05668 281.83539399999995 642.674745 261.59537z"  horiz-adv-x="1024" />

    
    <glyph glyph-name="fruit" unicode="&#58931;" d="M809.996 486.821c-36.857 0-72.291-9.228-103.917-26.87-28.295 47.66-31.694 61.768-38.228 98.55-10.243 57.682-7.551 112.138 3.104 159.884 1.7 7.617 3.371 14.072 4.861 19.263l2.333 0.479-0.968 4.094c0.97 3.115 1.825 5.57 2.51 7.327l10.867 27.902 116.622 0c17.529 0 31.692 14.095 31.692 31.478 0 17.505-14.188 31.476-31.692 31.476L429.898 840.404c-17.527 0-31.69-14.091-31.69-31.476 0-17.504 14.189-31.478 31.69-31.478l148.864 0c-32.767-13.602-70.031-35.028-107.159-66.508-19.987-16.944-38.547-35.973-55.389-57.194-38.22-48.152-64.568-91.963-81.111-130.724-5.287-12.391-9.095-23.065-11.76-32.014-13.12 1.861-26.425 3.156-40.059 3.156C126.831 494.166 0 367.336 0 210.88199999999995 0 54.42999999999995 126.829-72.40200000000004 283.284-72.40200000000004c156.456 0 283.286 126.831 283.286 283.284 0 118.951-73.401 220.61-177.308 262.592 1.89 6.447 4.845 14.961 9.558 26.004 14.335 33.59 37.789 72.587 72.538 116.37 14.144 17.817 29.688 33.756 46.416 47.937 28.141 23.858 58.25 41.702 88.273 54.375-9.786-52.511-11.358-110.868-0.429-172.43 7.772-43.767 13.02-68.42 67.06-140.283 3.16-4.33 7.362-7.852 12.241-10.188 9.996-5.94 22.996-5.674 32.908 1.701 26.79 19.928 58.659 30.46 92.168 30.46 85.249 0 154.606-69.356 154.606-154.606 0-85.253-69.357-154.609-154.606-154.609-85.253 0-154.609 69.356-154.609 154.609 0 26.397 6.759 52.442 19.547 75.313 8.004 14.317 2.887 32.411-11.43 40.416-14.321 8.003-32.413 2.888-40.416-11.43-17.729-31.709-27.101-67.775-27.101-104.3 0-118.006 96.002-214.008 214.008-214.008 118.002 0 214.005 96.002 214.005 214.008C1024.001 390.817 927.998 486.821 809.996 486.821zM495.747 210.88099999999997c0-117.34-95.122-212.464-212.463-212.464-117.34 0-212.463 95.124-212.463 212.464 0 117.341 95.124 212.463 212.463 212.463C400.625 423.344 495.747 328.222 495.747 210.88099999999997zM288.769 349.02099999999996c-1.315 0-2.605-0.092-3.871-0.261l-0.001 0.005c-0.014-0.003-0.027-0.007-0.041-0.011-2.224-0.301-4.357-0.854-6.369-1.628-27.826-7.747-49.411-23.025-64.96-43.493-14.022-18.456-20.666-36.861-22.848-50.378l0.158-0.025c-0.004-0.04-0.01-0.077-0.014-0.117-1.465-14.782 8.475-27.868 22.202-29.229 12.81-1.271 24.387 8.12 27.068 21.394l0.011-0.002c0.983 6.096 4.958 17.106 13.287 28.07 9.847 12.959 23.566 22.236 42.688 26.617l-0.01 0.042c11.306 2.955 19.596 12.595 19.596 24.039C315.664 337.83900000000006 303.623 349.02099999999996 288.769 349.02099999999996z"  horiz-adv-x="1024" />

    
    <glyph glyph-name="new" unicode="&#59270;" d="M511.581468 716.673775c-151.661142 0-279.518135-101.638865-319.355445-240.49333l-46.883797 13.219069 37.262672-111.211894 94.91165 73.945129-51.632961 14.558577 0 0 2.453888 0c35.720549 122.736369 149.135622 212.719776 283.243993 212.719776M511.581468 679.411103c133.721561 0 246.832711-89.483011 282.892999-211.677027l0.37146 0.144286c2.990101-6.435573 9.357112-10.920724 16.788361-10.920724 10.293437 0 18.635429 8.53028 18.635429 19.050891 0 1.930979-0.367367 3.761674-0.8913 5.520737l0.008186 0c-0.027629 0.096191-0.064468 0.187265-0.092098 0.283456-0.191358 0.603751-0.343831 1.222851-0.587378 1.798972-42.207287 135.032416-168.18242 233.06208-317.125661 233.06208M225.883587 466.691327M875.154997 276.29190600000004l-37.262672 111.212918-94.907557-73.946153 50.869574-14.341636c-36.663014-121.234155-149.238976-209.829959-282.272875-209.829959-132.709511 0-245.029646 88.172155-281.976116 208.94173l-0.075725-0.019443c-2.215458 7.986905-9.322319 13.870916-17.844413 13.870916-10.289344 0-18.631336-8.53028-18.631336-19.051915 0-1.166569 0.140193-2.298346 0.335644-3.409656l-0.335644-0.083911c40.796148-137.334855 167.946037-237.510392 318.52759-237.510392 150.362566 0 277.376355 99.883895 318.364885 236.914828L875.154997 276.29190600000004 875.154997 276.29190600000004zM875.154997 276.29190600000004"  horiz-adv-x="1024" />

    
    <glyph glyph-name="baby" unicode="&#58963;" d="M739.555556 8.53333299999997C760.035556 8.53333299999997 773.688889-5.1200000000000045 773.688889-25.600000000000023 773.688889-46.08000000000004 760.035556-59.733333000000016 739.555556-59.733333000000016 719.075556-59.733333000000016 705.422222-46.08000000000004 705.422222-25.600000000000023 705.422222-5.1200000000000045 719.075556 8.53333299999997 739.555556 8.53333299999997L739.555556 8.53333299999997ZM739.555556 76.79999999999995C684.942222 76.79999999999995 637.155556 29.01333299999999 637.155556-25.600000000000023 637.155556-80.21333300000003 684.942222-128 739.555556-128 794.168889-128 841.955556-80.21333300000003 841.955556-25.600000000000023 841.955556 29.01333299999999 794.168889 76.79999999999995 739.555556 76.79999999999995L739.555556 76.79999999999995 739.555556 76.79999999999995ZM261.688889 8.53333299999997C282.168889 8.53333299999997 295.822222-5.1200000000000045 295.822222-25.600000000000023 295.822222-46.08000000000004 282.168889-59.733333000000016 261.688889-59.733333000000016 241.208889-59.733333000000016 227.555556-46.08000000000004 227.555556-25.600000000000023 227.555556-5.1200000000000045 241.208889 8.53333299999997 261.688889 8.53333299999997L261.688889 8.53333299999997ZM261.688889 76.79999999999995C207.075556 76.79999999999995 159.288889 29.01333299999999 159.288889-25.600000000000023 159.288889-80.21333300000003 207.075556-128 261.688889-128 316.302222-128 364.088889-80.21333300000003 364.088889-25.600000000000023 364.088889 29.01333299999999 316.302222 76.79999999999995 261.688889 76.79999999999995L261.688889 76.79999999999995 261.688889 76.79999999999995ZM910.222222 725.333333L910.222222 793.6 753.208889 793.6 616.675556 520.5333330000001 500.622222 520.5333330000001 261.688889 896C138.808889 814.08 56.888889 677.5466670000001 56.888889 520.5333330000001 56.888889 274.773333 254.862222 76.79999999999995 500.622222 76.79999999999995 746.382222 76.79999999999995 944.355556 274.773333 944.355556 520.5333330000001L691.768889 520.5333330000001 794.168889 725.333333 910.222222 725.333333 910.222222 725.333333ZM248.035556 793.6L418.702222 520.5333330000001 125.155556 520.5333330000001C125.155556 629.76 172.942222 725.333333 248.035556 793.6L248.035556 793.6ZM500.622222 145.06666700000005C316.302222 145.06666700000005 166.115556 274.773333 131.982222 452.266667L869.262222 452.266667C835.128889 274.773333 684.942222 145.06666700000005 500.622222 145.06666700000005L500.622222 145.06666700000005Z"  horiz-adv-x="1024" />

    
    <glyph glyph-name="buzhengque" unicode="&#59290;" d="M473.699184 273.439952l74.420967 0L548.120151 608.350674l-74.420967 0L473.699184 273.439952zM473.699184 161.810548l74.420967 0 0 74.41892-74.420967 0L473.699184 161.810548zM510.909667 831.612551c-246.626004 0-446.52273-199.895703-446.52273-446.542172 0-246.589165 199.896726-446.52273 446.52273-446.52273 246.62805 0 446.523753 199.933565 446.523753 446.52273C957.43342 631.716848 757.537717 831.612551 510.909667 831.612551zM510.909667 12.969639c-205.491141 0-372.101763 166.646438-372.101763 372.10074 0 205.511607 166.611645 372.121206 372.101763 372.121206 205.493188 0 372.10381-166.610622 372.10381-372.121206C883.013477 179.615053 716.402855 12.969639 510.909667 12.969639z"  horiz-adv-x="1024" />

    
    <glyph glyph-name="music" unicode="&#59403;" d="M541.416695 469.080489c55.522875 0 100.690285 45.165591 100.690285 100.675127 0 55.520551-45.16842 100.695236-100.690285 100.695236-55.53197 0-100.708474-45.174686-100.708474-100.695236C440.708119 514.24608 485.883715 469.080489 541.416695 469.080489zM541.416695 612.252079c23.427452 0 42.488177-19.059916 42.488177-42.496564 0-23.416437-19.060725-42.476353-42.488177-42.476353-23.435536 0-42.506366 19.059916-42.506366 42.476353C498.910329 593.193173 517.981058 612.252079 541.416695 612.252079zM852.705858 535.3519269999999c0.777607 8.933136 1.486599 17.818776 1.486599 26.409644 0 184.301808-144.749945 334.238429-322.664663 334.238429-177.907745 0-322.637378-149.936621-322.637378-334.238429 0-8.591777 0.710002-17.477518 1.486599-26.409644l-81.279172 0L129.097844-104.86633200000006l795.442776 0L924.540619 535.351964 852.705891 535.351964zM531.527794 837.798296c145.820406 0 264.462555-123.828925 264.462555-276.036725 0-12.731234-1.478515-26.315664-3.666931-40.467711l-1.685473-5.191627-1.109871 0.228179c-1.042165-5.078548-2.197511-9.908707-3.381151-14.654991-3.87399-12.617044-9.453562-30.615696-15.632078-43.924451L292.546842 457.750969c-6.431959 13.878394-12.267196 32.9565-16.141085 45.648324-1.345225 4.385826-2.567165 8.393914-3.676026 11.813264l-1.978427 6.109598c-2.179321 14.152048-3.657836 27.717378-3.657836 40.439518C267.093535 713.969371 385.716483 837.798296 531.527794 837.798296zM866.336368-46.664607000000046L187.300903-46.664607000000046 187.300903 321.94923100000005l679.026417 0 0 58.201755L187.300903 380.150986 187.300903 477.151218l35.003881 0c7.456036-26.428844 17.401425-48.434472 29.840311-65.409047 0.084784-0.1151 0.151479-0.266579 0.237375-0.379658l8.72446-11.812253 540.852936 0 0.018178 0 8.714355 11.812253c13.414356 18.16923 22.744835 42.874201 29.167699 65.788806l26.478369 0L866.338468-46.66457700000001z"  horiz-adv-x="1024" />

    
    <glyph glyph-name="underware" unicode="&#58884;" d="M661.063475 386.06295l65.152512 241.958707L607.099187 739.89161l-98.497229-73.18784-99.715072 74.983834L290.520371 627.471155l73.224602-241.739674L14.107853 102.48949800000003l142.623027-145.367859 124.071731 107.372442 109.085798-105.506918 122.210304 105.691136 115.165594-106.223309L743.188173 66.75363800000002l112.670618-109.797683 156.235571 144.739533L661.063475 386.06295zM412.677427 680.117146l95.755674-72.019251 95.151923 70.712525 69.995008-65.747456-57.124352-212.164096-208.271811 0-64.436122 212.715725L412.677427 680.117146zM743.877939 131.623014L627.06985 22.495641999999975l-113.960038 105.09353L391.661978 22.576434999999947l-109.09911 105.502822L159.35785 21.471231999999986l-75.594752 77.043712 315.325235 255.451034 227.040016 0 314.340864-254.654874-83.784602-77.609574L743.877939 131.623014zM437.38921 767.259853c12.062208 0 21.823898 9.778688 21.823898 21.825024 0 12.046336-9.76169 21.824102-21.823898 21.824102-12.046848 0-21.809562-9.777664-21.809562-21.824102C415.578624 777.038643 425.342362 767.259853 437.38921 767.259853zM504.995738 767.259853c12.062208 0 21.82185 9.778688 21.82185 21.825024 0 12.046336-9.760666 21.824102-21.82185 21.824102-12.047872 0-21.80137-9.777664-21.80137-21.824102S492.94889 767.259853 504.995738 767.259853zM572.608307 767.259853c12.06528 0 21.823898 9.778688 21.823898 21.825024 0 12.046336-9.760666 21.824102-21.823898 21.824102-12.045824 0-21.808538-9.777664-21.808538-21.824102S560.562483 767.259853 572.608307 767.259853z"  horiz-adv-x="1024" />

    
    <glyph glyph-name="shouye" unicode="&#58889;" d="M838.6684 341.58399999999995l-321.1541 344.2499c-0.2568 0.2588-6.271 7.0942-14.7615 7.0942-9.9936 0-14.7166-6.8344-14.9724-7.0942L166.6232 341.58399999999995h0.586623974032645l-25.9833-27.94v-379.98061318303553c0 0 29.61-0.6875 66.1656-0.6875h166.18047831340112c-0.1559 1.9527-0.2518 3.9293-0.2518 5.928V192.41743614342238c0 36.5721 27.0876 66.226 60.4892 66.226h139.79339243544888c33.4006 0 60.4942-29.6548 60.4942-66.226v-253.51560938561778c0-1.9986-0.0969-3.9753-0.2578-5.928h163.94691003067032c36.5596 0 66.2016 0.6875 66.2016 0.6875V313.6440020785866l-25.9833 27.94H838.6684135469164zM577.3029 830.9732c-41.4334 41.5118-108.6534 41.5118-150.0848 0L5.2117 408.3426c15.618-30.4443 43.5001-53.5386 77.1116-62.7573l398.9473 397.8055c2.4944 2.4773 4.9338 4.6548 7.3443 6.4776 4.7949 4.2971 9.425 6.0949 14.032 5.92 4.607 0.1739 9.2371-1.6229 14.033-5.92 2.4115-1.8228 4.8509-3.9993 7.3453-6.4776l399.0102-397.8655c33.4516 9.0978 61.2397 31.9403 76.9657 62.0968L577.3029 830.9732z"  horiz-adv-x="1000" />

    
    <glyph glyph-name="dh1" unicode="&#58896;" d="M43.65486 896h182.942163v-90.172596H43.65486zM420.504173 896h559.809511v-90.172596H420.504173zM43.65486 429.122367h182.942163v-90.172596H43.65486zM420.504173 429.104333h559.809511v-90.172596H420.504173zM43.65486-37.77329999999995h182.942163v-90.172596H43.65486zM420.504173-37.73723099999995h559.809511v-90.172596H420.504173z"  horiz-adv-x="1024" />

    
    <glyph glyph-name="dh" unicode="&#58880;" d="M43.65486 896h182.942163v-90.172596H43.65486zM420.504173 896h559.809511v-90.172596H420.504173zM43.65486 429.122367h182.942163v-90.172596H43.65486zM420.504173 429.104333h559.809511v-90.172596H420.504173zM43.65486-37.77329999999995h182.942163v-90.172596H43.65486zM420.504173-37.73723099999995h559.809511v-90.172596H420.504173z"  horiz-adv-x="1024" />

    
    <glyph glyph-name="frige" unicode="&#58881;" d="M429.045 824.22h-266.771c-38.649 0-70.7-32.051-70.7-70.7v-710.761c0-38.649 32.051-70.7 70.7-70.7h266.771c38.649 0 70.7 32.051 70.7 70.7v710.761c0.944 38.649-31.108 70.7-70.7 70.7zM453.556 42.759000000000015c0-13.197-10.37-23.568-23.568-23.568h-266.771c-13.197 0-23.568 10.37-23.568 23.568v424.194h313.904v-424.194zM453.556 514.086h-313.904v56.56h313.904v-56.56zM453.556 617.778h-313.904v56.56h313.904v-56.56zM453.556 721.471h-313.904v32.051c0 13.197 10.37 23.568 23.568 23.568h266.771c13.197 0 23.568-10.37 23.568-23.568v-32.051zM872.094 824.22h-266.771c-38.649 0-70.7-32.051-70.7-70.7v-710.761c0-38.649 32.051-70.7 70.7-70.7h266.771c38.649 0 70.7 32.051 70.7 70.7v710.761c0.944 38.649-31.108 70.7-70.7 70.7zM896.603 42.759000000000015c0-13.197-10.37-23.568-23.568-23.568h-266.771c-13.197 0-23.568 10.37-23.568 23.568v245.09h92.38v47.133h-92.38v47.133h313.904v-339.355zM896.603 429.248h-313.904v47.133h92.38v47.133h-92.38v230.009c0 13.197 10.37 23.568 23.568 23.568h266.771c13.197 0 23.568-10.37 23.568-23.568v-324.273z"  horiz-adv-x="1024" />

    
    <glyph glyph-name="phone3" unicode="&#58882;" d="M820.409449 98.77165400000001q0-25.19685-10.07874-46.866142t-27.716535-38.299213-41.322835-26.204724-50.897638-9.574803l-357.795276 0q-27.212598 0-50.897638 9.574803t-41.322835 26.204724-27.716535 38.299213-10.07874 46.866142l0 675.275591q0 25.19685 10.07874 47.370079t27.716535 38.80315 41.322835 26.204724 50.897638 9.574803l357.795276 0q27.212598 0 50.897638-9.574803t41.322835-26.204724 27.716535-38.80315 10.07874-47.370079l0-675.275591zM738.771654 725.6692909999999l-455.559055 0 0-577.511811 455.559055 0 0 577.511811zM510.992126 119.93700799999999q-21.165354 0-36.787402-15.11811t-15.622047-37.291339q0-21.165354 15.622047-36.787402t36.787402-15.622047q22.173228 0 37.291339 15.622047t15.11811 36.787402q0 22.173228-15.11811 37.291339t-37.291339 15.11811zM591.622047 811.338583q0 8.062992-5.03937 12.598425t-11.086614 4.535433l-128 0q-5.03937 0-10.582677-4.535433t-5.543307-12.598425 5.03937-12.598425 11.086614-4.535433l128 0q6.047244 0 11.086614 4.535433t5.03937 12.598425z"  horiz-adv-x="1024" />

    
    <glyph glyph-name="safer" unicode="&#58897;" d="M917.661538 752.2461539999999c-11.815385 11.815385-27.569231 17.723077-45.292307 17.723077h-3.938462-27.569231c-27.569231 0-80.738462 1.969231-131.938461 13.784615-64.984615 15.753846-139.815385 88.615385-163.446154 102.4-9.846154 5.907692-21.661538 9.846154-35.446154 9.846154-11.815385 0-25.6-3.938462-37.415384-9.846154-1.969231-1.969231-80.738462-84.676923-159.507693-102.4-51.2-11.815385-104.369231-13.784615-131.938461-13.784615H149.661538c-15.753846 0-31.507692-5.907692-43.323076-17.723077-13.784615-11.815385-21.661538-29.538462-21.661539-47.261539v-159.507692c0-592.738462 397.784615-669.538462 413.538462-671.507692h23.630769c17.723077 3.938462 417.476923 78.769231 417.476923 671.507692V704.984615c0 17.723077-7.876923 35.446154-21.661539 47.261539z"  horiz-adv-x="1024" />

    
    <glyph glyph-name="nx" unicode="&#58960;" d="M809.312 406.768h-108.064c-60.16 0-105.568 15.728-134.928 46.784-42.624 45.04-39.552 109.936-39.44 112.656V782.256a34.144 34.144 0 0 1-34.144 34.128H37.584A34.144 34.144 0 0 1 3.456 782.256v-682.704c0-1.968 0.272-3.824 0.576-5.68a35.04 35.04 0 0 1-0.576-5.68v-91.024c0-12.352 6.624-23.072 16.448-29.072a34.048 34.048 0 0 1 29.072-16.448h944.448a34.16 34.16 0 0 1 34.128 34.16V180.39999999999998c0 167.664-141.28 221.328-218.24 226.368zM71.728 748.1279999999999h386.912l0.048-179.68c-0.256-3.824-5.408-94.048 57.376-161.104 42.784-45.68 105.072-68.848 185.184-68.848l105.792 0.064c6.224-0.384 152.24-11.776 152.24-158.208v-46.672H71.728V748.1279999999999z m887.552-728.224H71.728v45.52h887.568v-45.52h-0.016zM367.168 708.3199999999999a31.168 31.168 0 1 1 0-62.352 31.2 31.2 0 0 1 0 62.352z m0-102.896a31.168 31.168 0 1 1 0-62.336 31.168 31.168 0 0 1 0 62.336z m0-102.864a31.2 31.2 0 1 1 0-62.368 31.2 31.2 0 0 1 0 62.368z"  horiz-adv-x="1031" />

    
    <glyph glyph-name="new1" unicode="&#58886;" d="M628.5830808107231 910.1867118237786V538.8686954892801h83.38921553274758l-7.866907125730904-119.57698831110974 138.45756541286391 119.57698831110974H1039.2356327738764V910.1867118237786H628.5830808107231z m333.55686213099034-284.78203795145873h-66.0820198561396L773.334171924172 759.1420950097454v-133.73742113742537H707.2521520680322V844.1046919676392h66.0820198561396l121.15036973625593-133.73742113742537V844.1046919676392H960.566561516568l1.5733814251461808-218.70001809531914z"  horiz-adv-x="1024" />

    
    <glyph glyph-name="shop" unicode="&#58891;" d="M853.29066667 776.84586667l-7.5616 11.34506667h-650.60266667l-7.61386667-9.71733334C21.75146667 566.8074666699999 44.64 437.93386667 73.09013333 379.9072c28.448-58.1248 86.1472-95.73866667 147.05386667-95.73866666h5.4592c76.78293333 3.0528 127.82186667 41.16906667 154.74346667 68.79253333 24.29226667-27.62453333 69.99573333-64.53653333 141.59573333-64.53653333 74.60266667 0 121.184 40.19413333 144.47573333 68.09386666 32.57813333-26.54613333 96.1408-70.04693333 162.72853334-70.04693333 43.72906667 0 81.0944 17.90613333 111.59466666 53.19253333 113.07093333 131.6768-79.2384 424.78506667-87.45066666 437.18186667z m2.20373333-521.60426667c-14.17493333 0-25.66826667-11.4688-25.7184-25.6192v-185.136c0-28.448-23.06453333-51.488-51.44106667-51.488H250.9728c-28.37333333 0-51.43893333 23.04-51.43893333 51.488V229.54773334000004c-0.0256 14.20053333-11.5456 25.69386667-25.69493334 25.69386666-14.19946667 0-25.6704-11.49333333-25.71946666-25.69386666v-190.2176c0-54.04266667 43.72586667-97.81866667 97.71946666-97.81866667h537.632c53.99253333 0 97.71733333 43.776 97.71733334 97.81866667v190.29333333c-0.07466667 14.14933333-11.52 25.61813333-25.69386667 25.61813333z"  horiz-adv-x="1024" />

    
    <glyph glyph-name="pwd" unicode="&#58904;" d="M317.3 402.7V542.9c0 105.2 87.3 190.7 194.7 190.7s194.7-85.5 194.7-190.7v-140.2H317.3zM804 447.3v97.1C804 701.3 673 829 512 829S220 701.3 220 544.4v-97.1h-97.3V-61h778.7V447.3H804z"  horiz-adv-x="1024" />

    
    <glyph glyph-name="phone2" unicode="&#58920;" d="M769.887-128H230.35c-37.25 0-67.44 30.559-67.44 68.265V827.735C162.91 865.44 193.1 896 230.35 896h539.538c37.251 0 67.442-30.56 67.442-68.265v-887.47c0-37.706-30.191-68.265-67.442-68.265z m-269.769 68.265c24.833 0 44.965 20.374 44.965 45.508 0 25.136-20.132 45.51-44.965 45.51-24.824 0-44.964-20.374-44.964-45.51 0-25.134 20.14-45.508 44.964-45.508z m56.206 898.842c0 6.282-5.04 11.379-11.241 11.379H432.678c-6.2 0-11.241-5.097-11.241-11.379v-11.372c0-6.284 5.04-11.379 11.241-11.379h112.405c6.201 0 11.24 5.095 11.24 11.379V839.107z m-325.975-762.31h539.538V782.219H230.35v-705.422z"  horiz-adv-x="1024" />

    
    <glyph glyph-name="qr-code" unicode="&#58952;" d="M896 0v128h64v-192h-192v64h128zM64 832h384v-384H64V832z m64-64v-256h256V768H128z m448 64h384v-384H576V832z m64-64v-256h256V768h-256zM64 320h384v-384H64V320z m64-64v-256h256v256H128z m448-64h256v-64H576v64z m64-64h64v-128h-64v128z m64-64h64v-64h-64v64z m128 128h64v-64h-64v64z m-128 128h64v-64h-64V320z m64-64h64v-64h-64v64zM576 320h64v-64H576V320z m0-320h128v-64H576v64z m0 128h64v-64H576v64z m320 192h64v-64h-64V320z m-64 0h64v-128h-64V320z m-192 0h64v-128h-64V320z m128-192h64v-128h-64v128z m-64 576h128v-128h-128V704zM192 704h128v-128H192V704z m0-512h128v-128H192v128z"  horiz-adv-x="1024" />

    
    <glyph glyph-name="hot" unicode="&#58913;" d="M186.181818 779.636364v-660.945455h130.327273v-130.327273l130.327273 130.327273H837.818182V779.636364H186.181818z m521.309091-525.963637h-65.163636v153.6H381.672727v-153.6H316.509091V649.309091h65.163636v-176.872727h260.654546V649.309091h65.163636v-395.636364z"  horiz-adv-x="1024" />

    
    <glyph glyph-name="uncorrect" unicode="&#58898;" d="M512 25.600000000000023c-198.4 0-358.4 160-358.4 358.4 0 198.4 160 358.4 358.4 358.4 198.4 0 358.4-160 358.4-358.4 0-198.4-160-358.4-358.4-358.4zM512 678.4c-160 0-294.4-128-294.4-294.4 0-160 128-294.4 294.4-294.4 160 0 294.4 128 294.4 294.4 0 160-134.4 294.4-294.4 294.4zM684.8 416H339.2c-19.2 0-32-12.8-32-32s12.8-32 32-32h345.6c19.2 0 32 12.8 32 32s-12.8 32-32 32z"  horiz-adv-x="1024" />

    
    <glyph glyph-name="phone1" unicode="&#58961;" d="M715.9552 890.88h-407.9104c-51.00032 0-92.71808-38.016-92.71808-84.49024v-844.77952c0-46.47424 41.71776-84.49024 92.71808-84.49024h407.90528c51.00032 0.04096 92.71808 38.05184 92.71808 84.5312V806.38976C808.66816 852.864 766.9504 890.88 715.9552 890.88M456.40192 823.31136h111.23712c10.2144 0 18.56-7.5264 18.56-16.88064 0-9.3184-8.3456-16.88064-18.56-16.88064H456.40192c-10.25536 0-18.56 7.56224-18.56 16.88064 0.04096 9.3184 8.3456 16.88064 18.56 16.88064m55.63904-912.34816c-30.76096 0-55.63904 22.65088-55.63904 50.688 0 28.032 24.87296 50.688 55.63904 50.688 30.72512 0 55.63904-22.65088 55.63904-50.688-0.04096-28.03712-24.91904-50.688-55.63904-50.688m259.58912 135.13728H252.44672v675.84h519.18336v-675.84z"  horiz-adv-x="1024" />

    
    <glyph glyph-name="qr" unicode="&#58910;" d="M0-128h472.64V344.64H0z m78.72 393.92h315.2v-315.2H78.72zM157.44 738.56h157.44v-157.44H157.44zM551.36 896v-472.64H1024V896z m393.92-393.92h-315.2V817.28h315.2zM157.44 187.2h157.44v-157.44H157.44zM945.28 29.44H1024V-128h-78.72zM945.28 187.2h-157.76v157.44h-236.16V-128h78.72v315.2h78.72v-78.72H1024v236.16h-78.72v-157.44zM0 423.36h472.64V896H0zM78.72 817.28h315.2v-315.2H78.72zM708.8 738.56h157.44v-157.44h-157.44zM787.84 29.44h78.72V-128h-78.72z"  horiz-adv-x="1024" />

    
    <glyph glyph-name="cartbutton" unicode="&#58894;" d="M332.8 105.47199999999998q19.456 0 36.864-7.168t30.208-19.968 20.48-30.208 7.68-36.864-7.68-36.864-20.48-30.208-30.208-20.48-36.864-7.68q-20.48 0-37.888 7.68t-30.208 20.48-20.48 30.208-7.68 36.864 7.68 36.864 20.48 30.208 30.208 19.968 37.888 7.168zM758.784 103.42399999999998q19.456 0 37.376-7.168t30.72-19.968 20.48-30.208 7.68-36.864-7.68-36.864-20.48-30.208-30.72-20.48-37.376-7.68-36.864 7.68-30.208 20.48-20.48 30.208-7.68 36.864 7.68 36.864 20.48 30.208 30.208 19.968 36.864 7.168zM930.816 685.056q28.672 0 44.544-7.68t22.528-18.944 6.144-24.064-3.584-22.016-13.312-37.888-22.016-62.976-23.552-68.096-18.944-53.248q-13.312-40.96-33.28-56.832t-49.664-15.872l-35.84 0-65.536 0-86.016 0-96.256 0-253.952 0 14.336-92.16 517.12 0q49.152 0 49.152-41.984 0-20.48-9.728-35.84t-38.4-14.336l-49.152 0-94.208 0-118.784 0-119.808 0-99.328 0-55.296 0q-20.48 0-34.304 9.216t-23.04 24.064-14.848 32.256-8.704 32.768q-1.024 6.144-5.632 29.696t-11.264 58.88-14.848 78.848-16.384 87.552q-19.456 103.424-44.032 230.4l-76.8 0q-15.36 0-25.6 7.68t-16.896 18.432-9.216 23.04-2.56 22.528q0 20.48 13.824 33.792t37.376 12.288l103.424 0q20.48 0 32.768-6.144t19.456-15.36 10.24-18.944 5.12-16.896q2.048-8.192 4.096-23.04t4.096-30.208q3.072-18.432 6.144-38.912l700.416 0zM892.928 593.9200000000001l-641.024 2.048 35.84-185.344 535.552-1.024z"  horiz-adv-x="1028" />

    
    <glyph glyph-name="snack" unicode="&#58971;" d="M84.9664 468.60288c58.60352 12.47744 79.39584 58.99264 82.42688 84.52608l0.19456 209.81248c0 34.91328 38.47168 44.72832 43.648 44.79488L211.2256 863.5904c-33.60768 0-99.50208-30.3872-99.50208-100.64384v-204.3392c-1.08032-5.41184-7.57248-28.81536-38.38464-35.36896l11.62752-54.63552z m223.40096 0c58.60864 12.47744 79.39072 58.99264 82.43712 84.52608l0.1792 209.81248c0 34.91328 38.47168 44.72832 43.65824 44.79488L434.62656 863.5904c-33.60256 0-99.49184-30.3872-99.49184-100.64384v-204.3392c-1.09056-5.41184-7.57248-28.81536-38.38976-35.36896l11.6224-54.63552z m-111.70816 0c58.61376 12.47744 79.39072 58.99264 82.432 84.52608l0.18944 209.81248c0 34.91328 38.46656 44.72832 43.65312 44.79488L322.92864 863.5904c-33.6128 0-99.50208-30.3872-99.50208-100.64384v-204.3392c-1.08544-5.41184-7.56736-28.81536-38.38464-35.36896l11.61728-54.63552z m231.57248 199.51104h577.11104v-55.83872H428.23168V668.11392z m0 111.69792h577.11104V723.968H428.23168V779.81184zM0.04096 444.7232v-178.3808c0-199.53152 177.92-270.74048 242.0224-289.91488v-71.57248h539.88864v71.40864c64.4352 18.90304 242.01728 90.1376 242.01216 300.90752V444.7232H0.04096z m968.064-167.54688c0-209.04448-210.13504-250.12224-219.02848-251.7504l-22.97856-4.10624v-60.61568H297.9072l-0.05632 60.22144-22.53824 4.41344c-8.96 1.77152-219.4176 45.31712-219.4176 241.00352v29.44512h912.21504v-18.6112z m0 55.85408H55.89504V388.88448h912.20992v-55.85408zM18.6624 668.11392h55.85408v-55.83872H18.6624V668.11392z m0 111.69792h55.85408V723.968H18.6624V779.81184z m0 0"  horiz-adv-x="1024" />

    
    <glyph glyph-name="jiaju" unicode="&#58883;" d="M174.908621 562.868838c-91.582464 0-166.084301 74.483405-166.084301 166.05399C8.82432 820.4933120000001 83.325133 894.976717 174.908621 894.976717c91.56096 0 166.060749-74.483405 166.060749-166.052966C340.970394 637.352243 266.469581 562.868838 174.908621 562.868838zM174.908621 827.43849c-54.339789 0-98.542285-44.191437-98.542285-98.516787 0-54.326272 44.202496-98.515763 98.542285-98.515763 54.328525 0 98.518733 44.189389 98.518733 98.515763C273.428378 783.247053 229.237146 827.43849 174.908621 827.43849zM509.459558 562.868838c-91.583488 0-166.082253 74.483405-166.082253 166.05399C343.377306 820.4933120000001 417.87607 894.976717 509.459558 894.976717 601.022566 894.976717 675.522355 820.4933120000001 675.522355 728.922726 675.522355 637.352243 601.022566 562.868838 509.459558 562.868838zM509.459558 827.43849c-54.338765 0-98.542285-44.191437-98.542285-98.516787 0-54.326272 44.20352-98.515763 98.542285-98.515763 54.327501 0 98.518733 44.189389 98.518733 98.515763C607.979315 783.247053 563.789107 827.43849 509.459558 827.43849zM844.01152 562.868838c-91.582464 0-166.081229 74.483405-166.081229 166.05399C677.930291 820.4933120000001 752.428954 894.976717 844.01152 894.976717 935.574528 894.976717 1010.075341 820.4933120000001 1010.075341 728.922726 1010.074317 637.352243 935.574528 562.868838 844.01152 562.868838zM844.01152 827.43849c-54.337741 0-98.542285-44.191437-98.542285-98.516787 0-54.326272 44.204544-98.515763 98.542285-98.515763 54.328525 0 98.519757 44.189389 98.519757 98.515763C942.532301 783.247053 898.340045 827.43849 844.01152 827.43849zM174.908621 222.37388799999997c-91.582464 0-166.084301 74.473165-166.084301 166.040678 0 91.570586 74.500813 166.055014 166.084301 166.055014 91.56096 0 166.060749-74.484429 166.060749-166.055014C340.970394 296.84705299999996 266.469581 222.37388799999997 174.908621 222.37388799999997zM174.908621 486.932275c-54.339789 0-98.542285-44.192461-98.542285-98.517811 0-54.324224 44.202496-98.514739 98.542285-98.514739 54.328525 0 98.518733 44.190413 98.518733 98.514739C273.428378 442.740838 229.237146 486.932275 174.908621 486.932275zM509.459558 222.37388799999997c-91.583488 0-166.082253 74.473165-166.082253 166.040678 0 91.570586 74.498765 166.055014 166.082253 166.055014 91.563008 0 166.061773-74.484429 166.061773-166.055014C675.522355 296.84705299999996 601.022566 222.37388799999997 509.459558 222.37388799999997zM509.459558 486.932275c-54.338765 0-98.542285-44.192461-98.542285-98.517811 0-54.324224 44.20352-98.514739 98.542285-98.514739 54.327501 0 98.518733 44.190413 98.518733 98.514739C607.978291 442.740838 563.789107 486.932275 509.459558 486.932275zM844.01152 222.37388799999997c-91.582464 0-166.081229 74.473165-166.081229 166.040678 0 91.570586 74.498765 166.055014 166.081229 166.055014 91.563008 0 166.062797-74.484429 166.062797-166.055014C1010.074317 296.84705299999996 935.574528 222.37388799999997 844.01152 222.37388799999997zM844.01152 486.932275c-54.337741 0-98.542285-44.192461-98.542285-98.517811 0-54.324224 44.204544-98.514739 98.542285-98.514739 54.328525 0 98.519757 44.190413 98.519757 98.514739C942.532301 442.740838 898.340045 486.932275 844.01152 486.932275zM174.908621-118.17932800000005c-91.582464 0-166.084301 74.485453-166.084301 166.079488 0 91.54601 74.500813 166.029414 166.084301 166.029414 91.56096 0 166.060749-74.483405 166.060749-166.029414C340.970394-43.69387500000005 266.469581-118.17932800000005 174.908621-118.17932800000005zM174.908621 146.391347c-54.339789 0-98.542285-44.190413-98.542285-98.493235 0-54.3488 44.202496-98.541363 98.542285-98.541363 54.328525 0 98.518733 44.192461 98.518733 98.541363C273.428378 102.20093399999996 229.237146 146.391347 174.908621 146.391347zM509.459558-118.17932800000005c-91.583488 0-166.082253 74.485453-166.082253 166.079488 0 91.54601 74.498765 166.029414 166.082253 166.029414 91.563008 0 166.061773-74.483405 166.061773-166.029414C675.522355-43.69387500000005 601.022566-118.17932800000005 509.459558-118.17932800000005zM509.459558 146.391347c-54.338765 0-98.542285-44.190413-98.542285-98.493235 0-54.3488 44.20352-98.541363 98.542285-98.541363 54.327501 0 98.518733 44.192461 98.518733 98.541363C607.979315 102.20093399999996 563.789107 146.391347 509.459558 146.391347zM844.01152-118.17932800000005c-91.582464 0-166.081229 74.485453-166.081229 166.079488 0 91.54601 74.498765 166.029414 166.081229 166.029414 91.563008 0 166.062797-74.483405 166.062797-166.029414C1010.074317-43.69387500000005 935.574528-118.17932800000005 844.01152-118.17932800000005zM844.01152 146.391347c-54.337741 0-98.542285-44.190413-98.542285-98.493235 0-54.3488 44.204544-98.541363 98.542285-98.541363 54.328525 0 98.519757 44.192461 98.519757 98.541363C942.532301 102.20093399999996 898.340045 146.391347 844.01152 146.391347z"  horiz-adv-x="1024" />

    
    <glyph glyph-name="phone" unicode="&#59318;" d="M747.294-62.40999999999997H288.1c-34.171 0-61.928 27.875-61.928 62.108V768.664c0 34.298 27.757 62.172 61.928 62.172h459.195c34.118 0 61.871-27.874 61.871-62.172v-768.966c0-34.233-27.753-62.107-61.87-62.107zM288.1 800.407c-17.351 0-31.498-14.234-31.498-31.742v-768.966c0-17.473 14.147-31.678 31.498-31.678h459.195c17.357 0 31.441 14.205 31.441 31.678V768.664c0 17.507-14.084 31.742-31.44 31.742H288.098z m229.6-796.25c-22.346 0-40.478 18.218-40.478 40.593s18.132 40.595 40.478 40.595c22.348 0 40.474-18.22 40.474-40.595s-18.126-40.593-40.474-40.593z m0 50.758c-5.527 0-10.042-4.549-10.042-10.165 0-11.234 20.087-11.234 20.087 0-0.001 5.616-4.517 10.165-10.045 10.165z m217.945 59.79H297.015c-8.378 0-15.212 6.805-15.212 15.217V745.549c0 8.407 6.834 15.212 15.212 15.212h438.63c8.382 0 15.216-6.805 15.216-15.212V129.91999999999996c0-8.412-6.834-15.217-15.217-15.217z m-423.411 30.43h408.199V730.33h-408.2v-585.198z m0 0"  horiz-adv-x="1024" />

    
    <glyph glyph-name="cafe" unicode="&#59501;" d="M243.00032 615.0000640000001c19.900416 0 35.999744 16.100352 35.999744 35.999744V860.000256C279.000064 879.899648 262.899712 896 243.00032 896s-35.999744-16.100352-35.999744-35.999744v-209.000448c-0.001024-19.899392 16.099328-35.999744 35.999744-35.999744z m613.000192-144H736c0 39.799808-32.19968 71.999488-71.999488 71.999488H167.999488c-39.799808 0-71.999488-32.19968-71.999488-71.999488v-248.000512c0-3.39968 0.19968-6.700032 0.700416-9.900032-0.500736-6.99904-0.700416-13.999104-0.700416-21.09952 0-176.700416 143.299584-320 320-320 160.100352 0 292.70016 117.499904 316.300288 270.999552h123.700224c39.799808 0 71.999488 32.19968 71.999488 71.999488V398.999552c0 39.800832-32.19968 72.000512-71.999488 72.000512z m-192-256h-1.099776c0.700416-7.600128 1.099776-15.200256 1.099776-23.000064 0-136.999936-110.999552-248.000512-248.000512-248.000512S167.999488 55.00006399999995 167.999488 192c0 7.799808 0.400384 15.399936 1.099776 23.000064h-1.099776v256h496v-256z m192 7.999488H743.999488V398.999552h112v-176zM581.000192 615.0000640000001c19.900416 0 35.999744 16.100352 35.999744 35.999744V860.000256C616.999936 879.899648 600.899584 896 581.000192 896s-35.999744-16.100352-35.999744-35.999744v-209.000448c0-19.899392 16.099328-35.999744 35.999744-35.999744z m-170.000384 0c19.900416 0 35.999744 16.100352 35.999744 35.999744V860.000256C446.999552 879.899648 430.900224 896 410.999808 896s-35.999744-16.100352-35.999744-35.999744v-209.000448c0-19.899392 16.100352-35.999744 35.999744-35.999744z"  horiz-adv-x="1024" />

    
    <glyph glyph-name="car" unicode="&#58979;" d="M916.88 598.63h1.265V717.892c0 75.388-59.062 134.446-134.454 134.446h-503.79c-77.765 0-145.984-62.831-145.984-134.446v-119.265h8.981C53.968 554.78 18.591 457.754 18.591 390.442v-201.534c0-47.475 24.29-91.313 59.909-117.817-0.648-2.606-1.029-5.31-1.029-8.093v-75.592c0-18.874 15.733-34.598 34.598-34.598h75.571c10.84 0 19.022 4.103 24.596 10.287 6.022 5.562 10.002 13.647 10.002 24.311V45.07000000000005h619.128v-57.663c0-18.874 15.735-34.598 34.6-34.598h75.562c10.887 0 19.098 4.136 24.675 10.361 5.974 5.564 9.92 13.62 9.92 24.237v75.591c0 3.41-0.53 6.717-1.488 9.851 30.053 25.744 48.836 67.34 48.836 116.059V390.442c0 59.475-36.022 162.437-116.591 208.187zM203.113 717.892c0 36.747 41.277 65.253 76.787 65.253h503.791c36.593 0 65.257-28.663 65.257-65.253v-97.366a193.084 193.084 0 0 1-21.174 1.167H248.413c-16.057 0-31.138-1.316-45.299-3.753v99.952z m576.638-557.5h-507.44v-46.131H153.942c-34.62 0-66.155 35.587-66.155 74.645V390.442c0 1.62 4.37 162.059 160.625 162.059h579.362c103.806 0 136.5-126.328 136.5-162.06v-201.533c0-36.197-19.144-74.645-54.622-74.645h-129.9v46.13zM268.943 469.116c-65.131 0-118.109-52.977-118.109-118.094 0-65.115 52.978-118.093 118.11-118.093 65.12 0 118.097 52.978 118.097 118.093 0 65.117-52.977 118.094-118.098 118.094z m0-166.992c-26.974 0-48.913 21.937-48.913 48.897 0 26.963 21.939 48.9 48.913 48.9 26.963 0 48.902-21.937 48.902-48.9 0-26.96-21.939-48.897-48.902-48.897zM782.05 469.117c-62.844 0-113.966-51.118-113.966-113.948 0-62.822 51.122-113.928 113.966-113.928 62.833 0 113.942 51.106 113.942 113.928 0 62.83-51.109 113.948-113.942 113.948z m0-158.682c-24.687 0-44.77 20.069-44.77 44.734 0 24.671 20.082 44.754 44.77 44.754 24.674 0 44.746-20.083 44.746-44.754-0.001-24.664-20.072-44.734-44.746-44.734z"  horiz-adv-x="1034" />

    
    <glyph glyph-name="sofa" unicode="&#58885;" d="M372.84042325 451.98083818l301.64335576 0c40.47985107 0 73.41619482 32.93500869 73.41619482 73.4132584L747.89997383 760.57072266c0 40.48714864-32.93634375 73.42927646-73.41619482 73.42927646L372.84043115 834c-40.47985107 0-73.41619482-32.94212872-73.41619482-73.42927646l0-235.17668233C299.42422842 484.91584687 332.36057217 451.98083818 372.84042325 451.98083818zM349.25474902 760.5707543c0 13.01696807 10.58418984 23.60160352 23.58567335 23.60160351l301.64335576 0c13.00148349 0 23.58478388-10.58374512 23.58478388-23.60160351l0-235.17668232c0-13.00094912-10.58241006-23.58558457-23.58478389-23.58558458L372.84043115 501.8084874c-13.00148349 0-23.58567334 10.5855249-23.58567334 23.58558457L349.25475781 760.57072266zM877.10730664 551.6377863299999l-48.50007451 0c-42.24794678 0-80.71604121-36.21926338-80.71604121-75.99046992l0-44.51038419c-7.43680547 2.54704394-15.28626709 4.23584737-23.57588408 4.23584737L323.00988242 435.37278047c-8.29771523 0-16.14886787-1.68791396-23.59279336-4.24207705l0 44.51660947c0 41.90381367-31.84957178 75.99046992-70.99098135 75.99046992L179.92514638 551.63778281c-41.77744541 0-79.83208213-36.21926338-79.83208212-75.99046992L100.09306338 72.32279912000001c0-38.44433408 36.83793692-85.41633867 79.83208213-85.41633867l53.05890761 0 0-33.22048711 66.44013927 0 0 33.22048711 465.0863124 0 0-33.22048711 66.4410287 0 0 33.22048711 46.15573536 0c41.31317285 0 70.10871328 45.01106367 70.10871328 85.41633867L947.21598301 475.6473498C947.21601992 518.25817324 916.41762266 551.6377863299999 877.10730664 551.6377863299999zM299.42422842 361.94358309999996c0 13.01607773 10.58418984 23.5989334 23.58567334 23.59893341l401.30534355 0c12.97567617 0 23.53503691-10.54200762 23.57588409-23.5189292l0-119.08150665c-0.04093682-12.97425146-10.60020879-23.50113135-23.57588409-23.50113134L323.00988242 219.44094844000006c-13.00148349 0-23.58567334 10.57395586-23.58567334 23.58380478L299.4242082 361.94355146zM897.38362989 72.32278416999998c0-17.17717237-11.89958291-35.58964394-20.27641202-35.58964394L179.92514638 36.73313934999999c-11.77775244 0-30.00147276 21.6210832-30.00147274 35.58964395L149.92367363 475.6473498c0 12.22013232 15.97818164 26.16110596 30.00147275 26.16110596l48.50007451 0c13.07347822 0 21.15957041-13.58438203 21.15957042-26.16110596l0-306.03579082 73.42513242 0 401.30534356 0 73.40823456 0 0 73.33052432c0 0.03292734 0.00889893 0.05072519 0.00889893 0.08267344l0 118.91965078c0 0.02402754-0.00889893 0.05606543-0.00889893 0.0800042L797.72350097 475.6473498c0 11.97914151 16.73853047 26.16110596 30.88373995 26.16110596l48.50007451 0c12.69196875 0 20.27641201-13.29889482 20.27641201-26.16110596L897.38372832 72.32279912000001z"  horiz-adv-x="1024" />

    
    <glyph glyph-name="more" unicode="&#59213;" d="M512-128A512 512 0 1 0 1024 384 512 512 0 0 0 512-128z m0 979.478261A467.478261 467.478261 0 1 1 979.478261 384 467.478261 467.478261 0 0 1 512 851.478261zM430.569739 92.82782599999996l-31.476869 31.610435 259.517217 259.561739-259.517217 259.561739 31.476869 31.610435 283.336348-283.603478-7.613217-7.568696 7.613217-7.568696z"  horiz-adv-x="1024" />

    
    <glyph glyph-name="nz" unicode="&#59047;" d="M983.04 833.024H40.96c-22.528 0-40.96-18.432-40.96-40.96v-276.48c0-22.528 18.432-40.96 40.96-40.96h107.52v-499.2c0-22.528 18.432-40.96 40.96-40.96h645.12c22.528 0 40.96 18.432 40.96 40.96V474.624h107.52c22.528 0 40.96 18.432 40.96 40.96v276.48c0 23.04-18.432 40.96-40.96 40.96z m-311.808-61.44c-17.408-71.68-81.92-125.44-159.232-125.44S370.176 699.904 352.768 771.5840000000001h318.464zM209.92-4.096000000000004v46.08h604.16v-46.08H209.92zM962.56 536.0640000000001h-87.04c-33.792 0-61.44-27.648-61.44-61.44v-391.68H209.92V474.624c0 33.792-27.648 61.44-61.44 61.44H61.44v235.52h249.344c17.92-94.72 101.376-166.4 201.216-166.4s183.296 71.68 201.216 166.4H962.56v-235.52z"  horiz-adv-x="1024" />

    
    <glyph glyph-name="cart" unicode="&#59022;" d="M357.44 129.60000000000002q18.24 0 34.56-6.72t28.8-18.72 19.2-28.32 6.72-34.56-6.72-34.56-19.2-28.32-28.8-19.2-34.56-7.2q-19.2 0-35.04 7.2t-28.32 19.2-19.2 28.32-6.72 34.56 6.72 34.56 19.2 28.32 28.32 18.72 35.04 6.72zM756.8 127.67999999999995q18.24 0 35.04-6.72t28.8-18.72 19.2-28.32 7.2-34.56-7.2-34.56-19.2-28.32-28.8-19.2-35.04-7.2-34.56 7.2-28.32 19.2-19.2 28.32-7.2 34.56 7.2 34.56 19.2 28.32 28.32 18.72 34.56 6.72zM918.08 672.96q26.88 0 41.76-7.2t21.12-17.76 5.76-22.56-3.36-20.64-12-35.52-20.64-59.04-22.56-63.84-16.8-49.92q-12.48-38.4-31.68-53.28t-47.04-14.88l-32.64 0-62.4 0-81.6 0-89.28 0-238.08 0 14.4-86.4 483.84 0q46.08 0 46.08-39.36 0-19.2-9.12-33.12t-36-13.92l-46.08 0-89.28 0-110.4 0-112.32 0-92.16 0-52.8 0q-19.2 0-32.16 8.64t-21.6 22.56-13.92 30.24-8.16 30.72q-0.96 5.76-5.28 27.84t-10.56 55.2-13.92 73.92-15.36 82.08q-18.24 96.96-41.28 216l-72 0q-14.4 0-24 7.2t-15.84 17.28-8.64 21.6-2.4 21.12q0 19.2 12.96 31.68t35.04 12.48l21.12 0 19.2 0 24 0 32.64 0q19.2 0 30.72-5.76t18.24-14.4 9.6-18.24 4.8-16.32q1.92-7.68 3.84-21.6t3.84-28.32q2.88-17.28 5.76-36.48l656.64 0z"  horiz-adv-x="1024" />

    
    <glyph glyph-name="magnifier" unicode="&#58893;" d="M450.54 60.577999999999975c-212.445 0-385.282 172.836-385.282 385.275 0 212.436 172.837 385.273 385.283 385.273 212.446 0 385.29-172.837 385.29-385.273 0-212.438-172.844-385.275-385.29-385.275z m0 675.716c-160.156 0-290.446-130.292-290.446-290.441 0-160.15 130.29-290.444 290.447-290.444 160.155 0 290.453 130.294 290.453 290.444 0 160.149-130.298 290.441-290.453 290.441zM900.538-62.47799999999995c-14.94 0-29.87 5.7-41.27 17.09l-201.29 201.275c-22.789 22.79-22.789 59.741 0 82.536 22.799 22.783 59.744 22.783 82.54 0l201.29-201.275c22.79-22.79 22.79-59.74 0-82.534-11.4-11.392-26.33-17.092-41.27-17.092"  horiz-adv-x="1024" />

    
    <glyph glyph-name="star" unicode="&#58892;" d="M489.72845 863.822319c20.819595 42.896749 54.843563 42.896749 75.663157 0l100.150633-206.519198c20.819595-42.896749 75.907682-83.6277 122.43738-90.509344l223.950369-33.11573c46.529697-6.881645 57.044292-39.857647 23.369645-73.252835l-162.050501-160.723077c-33.674646-33.395188-54.703833-99.31226-46.774223-146.435805l38.250765-226.989471c7.964543-47.158477-19.596967-67.523953-61.201224-45.237206l-200.336198 107.172006c-41.604257 22.251815-109.722057 22.251815-151.326314 0l-200.336198-107.172006c-41.604257-22.286747-69.165767-1.921271-61.201224 45.237206l38.250765 226.989471c7.964543 47.123545-13.099578 113.040617-46.774223 146.435805l-162.085434 160.723077c-33.674646 33.395188-23.12512 66.336258 23.369645 73.252835l223.985301 33.11573c46.529697 6.881645 101.617786 47.612596 122.43738 90.509344L489.72845 863.822319z"  horiz-adv-x="1056" />

    
    <glyph glyph-name="PwdLogin" unicode="&#60369;" d="M818.899737 725.395888v-443.570691H323.499517L204.724934 404.387191V725.395888h614.174803z m99.325714 170.604112A105.501583 105.501583 0 0 0 1023.624671 790.396055v-594.111759a105.501583 105.501583 0 0 0-105.39922-105.569825h-259.830063v-145.764153h182.307554a36.304555 36.304555 0 1 0 0-72.574989h-110.039652l-290.43644 290.334078h512.153544V821.070674H72.813835v-291.084736L0 602.7656529999999v187.664523A105.501583 105.501583 0 0 0 105.39922 896H918.19133z"  horiz-adv-x="1364" />

    
    <glyph glyph-name="mz" unicode="&#59051;" d="M653.312 527.8720000000001V665.088c0 33.792-108.032 230.912-195.072 230.912-56.32 0-81.92-81.92-81.92-118.272v-247.296C340.992 511.488 317.44 474.112 317.44 431.104V-15.360000000000014c0-62.464 50.176-112.64 112.64-112.64h164.864c62.464 0 112.64 50.176 112.64 112.64V431.616c-0.512 40.96-22.016 76.288-54.272 96.256z m-226.816-45.056h171.008c20.48-1.024 37.888-14.848 45.056-33.28h-261.12c7.168 18.432 24.576 32.256 45.056 33.28zM459.264 834.56c8.704-2.048 35.84-17.408 74.752-71.168 33.28-45.568 53.248-89.088 57.344-102.912v-116.224H437.248V777.728c0 18.432 12.288 49.664 22.016 56.832z m135.168-901.12H429.568c-28.16 0-51.2 23.04-51.2 51.2V408.576h267.264V-15.360000000000014c0-28.16-23.04-51.2-51.2-51.2z"  horiz-adv-x="1024" />

    
    <glyph glyph-name="diamond" unicode="&#58895;" d="M1012.58 562.748C950.194 651.454 887.811 740.2 825.425 828.926c-5.558 8.774-15.641 14.998-25.99 14.998H201.107c-9.275 0-16.3-3.475-21.122-8.725a28.39 28.39 0 0 1-0.483-0.504c-0.061-0.072-0.125-0.14-0.188-0.212a34.91 34.91 0 0 1-4.074-5.389c-54.667-88.78-109.31-177.584-163.97-266.345-7.07-11.486-4.575-25.069 3.217-34.304 0.465-0.688 0.948-1.365 1.466-2.026 154.743-197.936 309.474-395.92 464.213-593.853 6.764-8.662 15.01-11.384 22.813-10.174 6.765-0.013 13.679 2.96 19.571 10.174 161.765 197.932 323.56 395.917 485.335 593.852a35.243 35.243 0 0 1 2.281 3.165c7.495 9.272 10.022 22.332 2.412 33.165z m-83.494 14.85H744.623c21.074 57.485 42.142 114.974 63.218 172.46l121.245-172.46zM501.322 769.906c43.904-64.094 87.803-128.203 131.706-192.308H365.576c45.246 64.102 90.49 128.206 135.746 192.308z m157.677-252.253C606.703 374.99699999999996 554.406 232.34000000000003 502.117 89.66399999999999c-50.85 143.12-101.886 285.877-154.817 427.989H659z m30.527 83.279C647.734 661.94 605.948 722.96 564.159 783.98h192.464c-22.367-61.014-44.732-122.037-67.097-183.05z m-375.99 6.52c-22.373 58.97-45.142 117.82-68.417 176.53h193.015a3259483.52 3259483.52 0 0 1-124.599-176.53zM195.43 747.561c22.282-56.533 44.095-113.195 65.567-169.963H90.796c34.883 56.657 69.761 113.311 104.634 169.962z m88.102-229.909c54.761-146.589 107.454-293.869 159.927-441.528A6434575.452 6434575.452 0 0 0 98.335 517.653h185.197z m439.119 0h201.057C802.17 368.95000000000005 680.644 220.24599999999998 559.122 71.54999999999995c54.501 148.703 109.016 297.402 163.529 446.103z"  horiz-adv-x="1024" />

    
    <glyph glyph-name="tmall-tmall" unicode="&#58890;" d="M200.145455 672.581818h335.127272v-684.218182h121.018182V672.581818h330.472727V798.254545H200.145455zM3611.927273 114.03636400000005c-60.509091 0-107.054545 46.545455-107.054546 107.054545V793.6h-121.018182v-572.509091c0-125.672727 102.4-232.727273 232.727273-232.727273h228.072727v121.018182h-232.727272zM3048.727273 221.090909V793.6h-121.018182v-572.509091c0-125.672727 102.4-232.727273 232.727273-232.727273h130.327272v121.018182h-130.327272c-65.163636 4.654545-111.709091 51.2-111.709091 111.709091zM1829.236364 788.945455c-32.581818 13.963636-69.818182 9.309091-102.4-13.963637l-116.363637-97.745454C1536 616.727273 1428.945455 616.727273 1354.472727 677.236364l-116.363636 97.745454c-27.927273 23.272727-69.818182 27.927273-102.4 13.963637-32.581818-13.963636-55.854545-46.545455-55.854546-83.781819v-712.145454h121.018182v651.636363l69.818182-55.854545c60.509091-46.545455 130.327273-74.472727 204.8-74.472727 74.472727 0 148.945455 27.927273 204.8 74.472727l69.818182 55.854545v-656.290909h121.018182V705.163636c13.963636 37.236364-4.654545 69.818182-41.890909 83.781819zM2401.745455 798.254545c-55.854545 0-107.054545-32.581818-130.327273-83.781818l-311.854546-721.454545H2094.545455l116.363636 269.963636h386.327273l116.363636-269.963636h134.981818L2532.072727 714.472727c-23.272727 51.2-74.472727 83.781818-130.327272 83.781818z m-139.636364-418.90909L2383.127273 663.272727c4.654545 9.309091 9.309091 9.309091 13.963636 9.309091 4.654545 0 13.963636 0 13.963636-9.309091l121.018182-283.927272h-269.963636zM4929.163636 793.6h-60.509091v-79.127273h60.509091c46.545455 0 88.436364-37.236364 97.745455-79.127272l-144.290909-107.054546 46.545454-60.509091 97.745455 74.472727v-121.018181l-144.290909-107.054546 46.545454-60.509091 97.745455 74.472728v-69.818182c0-69.818182-32.581818-134.981818-88.436364-176.872728l-46.545454-32.581818 46.545454-65.163636 46.545455 32.581818c74.472727 55.854545 121.018182 144.290909 121.018182 237.381818V616.727273c0 97.745455-79.127273 176.872727-176.872728 176.872727zM5632 742.4V812.218182h-79.127273v-69.818182h-218.763636V812.218182h-79.127273v-69.818182h-93.090909V663.272727h93.090909v-74.472727h79.127273V663.272727h218.763636v-74.472727h79.127273V663.272727h93.090909V742.4zM5161.890909 137.30909099999997c0-83.781818 65.163636-148.945455 148.945455-148.945455h265.309091c83.781818 0 148.945455 65.163636 148.945454 148.945455V537.6h-563.2v-400.290909z m79.127273 0v88.436364h162.909091v-158.254546h-93.090909c-37.236364 0-69.818182 32.581818-69.818182 69.818182z m335.127273-69.818182h-93.09091v158.254546h162.909091v-88.436364c0-37.236364-32.581818-69.818182-69.818181-69.818182z m69.818181 237.381818h-162.909091V458.472727h162.909091v-153.6z m-242.036363 153.6v-153.6h-162.909091V458.472727h162.909091zM4417.163636 537.6V719.1272730000001h335.127273V793.6H4002.909091v-79.127273h335.127273v-214.109091h-372.363637v-79.127272H4328.727273C4282.181818 244.36363600000004 4147.2 104.72727299999997 3965.672727 58.18181800000002l18.618182-74.472727c186.181818 46.545455 330.472727 181.527273 395.636364 353.745454 65.163636-172.218182 209.454545-302.545455 395.636363-353.745454l18.618182 74.472727c-181.527273 46.545455-316.509091 190.836364-358.4 363.054546h363.054546V500.363636h-372.363637c-9.309091 13.963636-9.309091 23.272727-9.309091 37.236364z"  horiz-adv-x="6050" />

    
    <glyph glyph-name="top" unicode="&#58888;" d="M512 683.577L0 171.563l38.699-38.713L512 606.15 985.301 132.85000000000002 1024 171.563z"  horiz-adv-x="1024" />

    
    <glyph glyph-name="del" unicode="&#58921;" d="M512 864C246.4 864 32 649.6 32 384s214.4-480 480-480 480 214.4 480 480S777.6 864 512 864m201.6-681.6c-12.8-12.8-35.2-12.8-48 0L512 336 358.4 182.39999999999998c-12.8-12.8-35.2-12.8-48 0-12.8 12.8-12.8 35.2 0 48L464 384 310.4 537.6c-12.8 12.8-12.8 35.2 0 48 12.8 12.8 35.2 12.8 48 0L512 432l153.6 153.6c12.8 12.8 35.2 12.8 48 0 12.8-12.8 12.8-35.2 0-48L560 384l153.6-153.6c16-12.8 16-35.2 0-48m0 0z"  horiz-adv-x="1024" />

    
    <glyph glyph-name="userName" unicode="&#58887;" d="M507.7504 892.5184c18.44736-0.00512 36.82304-2.2272 54.74304-6.6048a269.79328 269.79328 0 0 0 51.22048-17.75104 231.84384 231.84384 0 0 0 42.61888-25.37472 154.0096 154.0096 0 0 0 28.93824-28.42624 223.90784 223.90784 0 0 0 36.36224-71.51616 523.5712 523.5712 0 0 0 16.03584-74.56768 635.32544 635.32544 0 0 0 5.07904-82.11456 38.7072 38.7072 0 0 0 10.56256-13.17376 77.66016 77.66016 0 0 0 5.8624-18.26304c1.68448-9.03168 1.95072-18.26304 0.78336-27.37664a111.90272 111.90272 0 0 0-8.21248-33.97632 70.68672 70.68672 0 0 0-14.07488-19.7888 46.03392 46.03392 0 0 0-17.98656-11.14624 1026.44736 1026.44736 0 0 0-9.37984-32.45568c-3.52256-8.79616-7.04512-17.39776-10.95168-25.8816a70.4256 70.4256 0 0 0-14.08-19.7888 970.0352 970.0352 0 0 1-29.71136-25.88672 63.01696 63.01696 0 0 1-15.25248-36.01408 136.06912 136.06912 0 0 1-1.95584-30.9248c0.91136-10.8288 3.6864-21.40672 8.21248-31.2832a98.24768 98.24768 0 0 1 21.89824-29.91104 138.00448 138.00448 0 0 1 41.84064-25.37984 437.12512 437.12512 0 0 1 52.00384-18.26304 564.13696 564.13696 0 0 0 54.74304-18.76992 194.80064 194.80064 0 0 0 47.31392-26.3936 85.5552 85.5552 0 0 0 29.32736-43.01312 227.2768 227.2768 0 0 0 7.04-40.07936 492.9024 492.9024 0 0 0 2.34496-48.20992 280.6784 280.6784 0 0 0-3.51744-45.6704 90.63424 90.63424 0 0 0-9.77408-32.45568 56.07936 56.07936 0 0 0-27.37664-14.19776 529.83808 529.83808 0 0 0-55.13216-13.68576c-22.28736-4.38272-46.53056-8.28928-73.90208-11.72992a2105.78944 2105.78944 0 0 0-81.3312-8.64256 2471.8848 2471.8848 0 0 0-78.98624-5.59616c-25.02656-1.36704-46.91968-2.03264-65.30048-2.03264s-39.8848 0.6656-64.51712 2.03264c-24.63744 1.37216-49.664 3.21024-75.85792 5.59616a2881.6896 2881.6896 0 0 0-77.81376 8.13568c-25.80992 3.05152-49.26976 6.25664-70.37952 9.61536-21.11488 3.36384-38.71232 6.76352-53.57056 10.1632A70.56384 70.56384 0 0 0 138.24-78.12095999999997a89.30304 89.30304 0 0 0-14.85824 49.69984 402.64704 402.64704 0 0 0 4.3008 107.5712 85.4784 85.4784 0 0 0 28.15488 57.32352 183.36256 183.36256 0 0 0 54.35392 31.27808 706.6624 706.6624 0 0 0 64.51712 20.80256 199.86432 199.86432 0 0 1 59.04384 26.3936 139.49952 139.49952 0 0 1 30.49984 25.37984 83.16416 83.16416 0 0 1 15.24736 24.36096 62.94016 62.94016 0 0 1 5.08416 25.37984c0 8.78592-0.39424 18.60096-1.1776 29.44512a56.86272 56.86272 0 0 1-15.25248 37.03296 526.3616 526.3616 0 0 1-29.71136 27.91936 62.54592 62.54592 0 0 0-13.29664 19.7888 1870.37184 1870.37184 0 0 0-10.55744 25.8816 999.89504 999.89504 0 0 0-9.37984 32.45568 42.4704 42.4704 0 0 0-13.29152 7.1168 79.34464 79.34464 0 0 0-12.51328 14.19264 84.8896 84.8896 0 0 0-11.3408 26.3936 71.15776 71.15776 0 0 0-4.3008 31.27808c0.66048 8.30464 2.37056 16.49152 5.08416 24.36608a67.41504 67.41504 0 0 0 12.51328 21.30944 509.34784 509.34784 0 0 0 3.90656 77.1072 474.47552 474.47552 0 0 0 13.69088 69.99552 218.40896 218.40896 0 0 0 30.1056 66.97984 187.74016 187.74016 0 0 0 40.66816 46.1824 202.9568 202.9568 0 0 0 45.7472 27.91936 190.01856 190.01856 0 0 0 46.91968 13.68576 301.07136 301.07136 0 0 0 45.3632 3.5584V892.5184z m0 0"  horiz-adv-x="1024" />

    
    <glyph glyph-name="qrcodeb" unicode="&#58991;" d="M1106.261333 757.930667c0 31.118222-31.061333 61.610667-63.715555 61.610666h-236.544V896h205.425778c102.741333-0.113778 174.364444-56.092444 173.852444-152.860444V529.066667h-79.018667V757.930667zM221.240889 758.442667V529.066667H142.222222V743.139556C142.222222 839.964444 200.135111 896 300.259556 896h221.297777v-76.458667H284.444444c-32.085333 0-63.146667-30.890667-63.146666-61.098666z m0-734.037334c0-29.468444 31.004444-60.871111 64.739555-60.871111h235.52v-76.458666H284.444444c-100.124444 0-142.222222 56.035556-142.222222 152.860444v214.016h79.075556v-229.546667z m885.020444 0.682667v228.864h79.018667v-214.016c0.113778-96.824889-57.457778-152.803556-158.037333-152.860444h-221.297778V-36.408889000000045h236.259555c33.109333 0 64.056889 30.72 64.056889 61.553778z m221.297778 366.421333a46.648889 46.648889 0 0 0-47.502222-45.909333H47.445333A46.648889 46.648889 0 0 0 0 391.509333a46.648889 46.648889 0 0 0 47.445333 45.909334h1232.611556a46.648889 46.648889 0 0 0 47.445333-45.909334z"  horiz-adv-x="1365" />

    
    <glyph glyph-name="qrCode" unicode="&#59012;" d="M23.151304 883.756522L11.353043 895.777391h375.362783V520.013913L23.151304 883.756522z m301.056-301.078261V833.113043H73.772522l250.434782-250.434782z m-67.294608 62.530782L136.281043 768.289391v2.181566h125.284174v-125.261914h-4.674782zM1012.869565 520.013913H637.150609V895.777391H1012.869565v-375.718956z m-313.076869 62.642087h250.434782V833.113043h-250.434782v-250.434782z m139.865043-532.123826h47.927652V113.08521699999994h62.642087v-156.560695H1012.869565v-62.508522h-19.812174l-153.377391 156.538435zM574.642087 321.00173900000004l-125.284174 127.844174V739.216696h93.896348V864.389565h62.642087v-187.814956H512v-93.896348h62.642087v-62.642087H512v-93.896348h219.180522v-125.150609h-62.642087V363.52h-93.896348v-42.518261z m80.985043-82.632348h169.44974v187.792696h62.508521v62.642087h62.642087v-62.642087H1012.869565v-62.619826h-125.284174v-125.17287H1012.869565v-62.642087H717.000348l-61.373218 62.642087zM762.434783 770.470957h125.284174v-125.261914H762.434783V770.448696z"  horiz-adv-x="1024" />

    


  </font>
</defs>
</svg>
